<svg width="24" height="24" viewBox="0 0 24 24" fill="none" xmlns="http://www.w3.org/2000/svg">
<path d="M21.7499 5.96015C21.0327 6.26953 20.2522 6.49218 19.4483 6.5789C20.283 6.08305 20.908 5.29968 21.2062 4.37578C20.4229 4.84169 19.5649 5.16839 18.6702 5.3414C18.2963 4.94162 17.844 4.62313 17.3415 4.40579C16.8391 4.18845 16.2973 4.07691 15.7499 4.07812C13.5351 4.07812 11.7538 5.87343 11.7538 8.07656C11.7538 8.38593 11.7913 8.69531 11.8522 8.99296C8.53584 8.81953 5.57803 7.23515 3.61162 4.80937C3.25332 5.42136 3.06556 6.11818 3.06787 6.82734C3.06787 8.21484 3.77334 9.43828 4.84912 10.1578C4.21515 10.1328 3.59602 9.95859 3.04209 9.64921V9.69843C3.04209 11.6414 4.41553 13.2516 6.246 13.6219C5.90231 13.7111 5.54875 13.7568 5.19365 13.7578C4.9335 13.7578 4.6874 13.732 4.43896 13.6969C4.94521 15.2812 6.41943 16.432 8.1749 16.4695C6.80146 17.5453 5.08115 18.1781 3.21318 18.1781C2.87803 18.1781 2.56865 18.1664 2.24756 18.1289C4.01943 19.2656 6.12178 19.9219 8.38584 19.9219C15.7358 19.9219 19.7577 13.8328 19.7577 8.54765C19.7577 8.37421 19.7577 8.20078 19.746 8.02734C20.5241 7.45781 21.2062 6.75234 21.7499 5.96015Z" fill="white"/>
</svg>
